<svg width="34" height="33" viewBox="0 0 34 33" fill="none" xmlns="http://www.w3.org/2000/svg">
<g id="instagram round">
<path d="M19.5336 16.4898C19.5237 16.9967 19.3588 17.4893 19.0598 17.9051C18.7608 18.321 18.3412 18.6414 17.8542 18.8257C17.3672 19.0101 16.8348 19.0501 16.3243 18.9407C15.8138 18.8312 15.3484 18.5773 14.9869 18.2111C14.6254 17.8448 14.3843 17.3828 14.2939 16.8835C14.2036 16.3841 14.2681 15.8701 14.4794 15.4064C14.6907 14.9427 15.0392 14.5503 15.4808 14.2789C15.9223 14.0075 16.437 13.8693 16.9597 13.8819C17.6542 13.9068 18.3113 14.1931 18.7918 14.6799C19.2723 15.1668 19.5384 15.816 19.5336 16.4898Z" fill="white"/>
<path d="M21.4361 8.47392H12.485C11.5993 8.47392 10.7499 8.8151 10.1236 9.42241C9.49728 10.0297 9.14543 10.8534 9.14543 11.7123V20.5874C9.14543 21.0126 9.23181 21.4337 9.39964 21.8266C9.56747 22.2195 9.81346 22.5765 10.1236 22.8772C10.4337 23.1779 10.8018 23.4165 11.207 23.5792C11.6122 23.742 12.0464 23.8257 12.485 23.8257H21.4361C21.8747 23.8257 22.3089 23.742 22.7141 23.5792C23.1193 23.4165 23.4874 23.1779 23.7976 22.8772C24.1077 22.5765 24.3537 22.2195 24.5215 21.8266C24.6893 21.4337 24.7757 21.0126 24.7757 20.5874V11.7283C24.7774 11.3018 24.6924 10.8792 24.5253 10.4846C24.3583 10.09 24.1127 9.73133 23.8024 9.429C23.4922 9.12668 23.1235 8.8867 22.7174 8.72281C22.3114 8.55892 21.876 8.47434 21.4361 8.47392ZM16.9597 20.8306C16.0736 20.85 15.2017 20.6129 14.4551 20.1496C13.7086 19.6864 13.1213 19.0179 12.7683 18.2296C12.4152 17.4412 12.3124 16.5688 12.473 15.7235C12.6335 14.8783 13.0501 14.0986 13.6697 13.484C14.2892 12.8693 15.0836 12.4476 15.9513 12.2727C16.8191 12.0978 17.7209 12.1775 18.5417 12.5018C19.3626 12.8261 20.0651 13.3801 20.5598 14.0933C21.0544 14.8064 21.3188 15.6464 21.319 16.5058C21.3257 17.0674 21.2183 17.6247 21.0029 18.146C20.7874 18.6673 20.4682 19.1424 20.0634 19.544C19.6585 19.9456 19.1761 20.2659 18.6436 20.4867C18.111 20.7074 17.5389 20.8243 16.9597 20.8306ZM21.8041 12.1827C21.6952 12.1827 21.5874 12.1617 21.487 12.1208C21.3867 12.0799 21.2957 12.02 21.2195 11.9446C21.1433 11.8692 21.0833 11.7798 21.0432 11.6817C21.003 11.5836 20.9835 11.4786 20.9857 11.3731C20.9857 11.1584 21.0736 10.9524 21.2302 10.8006C21.3868 10.6488 21.5991 10.5635 21.8206 10.5635C22.042 10.5635 22.2544 10.6488 22.4109 10.8006C22.5675 10.9524 22.6555 11.1584 22.6555 11.3731C22.6587 11.4874 22.6365 11.601 22.5903 11.7062C22.5441 11.8114 22.475 11.9057 22.3877 11.9825C22.3004 12.0594 22.197 12.1171 22.0846 12.1517C21.9722 12.1862 21.8534 12.1968 21.7364 12.1827H21.8041Z" fill="white"/>
<path d="M16.9597 0.101274C12.5837 0.0800574 8.3782 1.7454 5.26842 4.73094C2.15863 7.71648 0.399284 11.7777 0.377404 16.0211C0.355524 20.2645 2.07291 24.3425 5.15175 27.3581C8.23059 30.3736 12.4187 32.0797 16.7947 32.1009C18.9615 32.1114 21.1092 31.7079 23.1152 30.9136C25.1212 30.1192 26.9462 28.9495 28.486 27.4712C30.0258 25.9929 31.2502 24.235 32.0895 22.2978C32.9287 20.3607 33.3662 18.2822 33.377 16.1811C33.3878 14.08 32.9718 11.9973 32.1526 10.0521C31.3334 8.10692 30.1271 6.33722 28.6026 4.84408C27.0782 3.35093 25.2653 2.16357 23.2676 1.3498C21.2699 0.53603 19.1265 0.11178 16.9597 0.101274ZM26.98 20.4242C26.9846 21.142 26.8422 21.8536 26.5611 22.5176C26.28 23.1817 25.8658 23.785 25.3424 24.2927C24.8191 24.8003 24.197 25.2022 23.5123 25.4749C22.8276 25.7477 22.0938 25.886 21.3536 25.8818H12.5691C11.829 25.8858 11.0954 25.7474 10.4108 25.4747C9.7262 25.2019 9.10419 24.8002 8.58077 24.2928C8.05734 23.7854 7.64291 23.1824 7.36144 22.5186C7.07998 21.8548 6.93708 21.1435 6.94102 20.4258V11.9059C6.93642 11.1881 7.0788 10.4766 7.35991 9.81253C7.64101 9.14848 8.05525 8.54515 8.57861 8.0375C9.10197 7.52985 9.72404 7.12799 10.4088 6.8552C11.0935 6.58242 11.8272 6.44415 12.5675 6.4484H21.3536C22.0937 6.44415 22.8273 6.58237 23.5119 6.85505C24.1965 7.12774 24.8185 7.52946 25.3418 8.03693C25.8652 8.54441 26.2795 9.14756 26.5607 9.81142C26.8419 10.4753 26.9844 11.1867 26.98 11.9043V20.4242Z" fill="white"/>
</g>
</svg>
