<svg width="33" height="33" viewBox="0 0 33 33" fill="none" xmlns="http://www.w3.org/2000/svg">
<path id="linkedin round" d="M16.3772 0.101074C13.2127 0.101074 10.1193 1.03946 7.48808 2.79756C4.85689 4.55566 2.80613 7.05452 1.59513 9.97814C0.38413 12.9018 0.0672765 16.1188 0.68464 19.2225C1.302 22.3262 2.82586 25.1771 5.06349 27.4148C7.30113 29.6524 10.1521 31.1763 13.2558 31.7936C16.3595 32.411 19.5765 32.0941 22.5001 30.8831C25.4237 29.6721 27.9226 27.6214 29.6807 24.9902C31.4388 22.359 32.3772 19.2656 32.3772 16.1011C32.3772 11.8576 30.6915 7.78795 27.6909 4.78736C24.6903 1.78678 20.6207 0.101074 16.3772 0.101074ZM11.7246 24.5221H8.23405V13.2779H11.7246V24.5221ZM9.9772 11.7432C9.57549 11.7448 9.1823 11.6274 8.84734 11.4056C8.51237 11.1839 8.25067 10.8678 8.09531 10.4973C7.93995 10.1269 7.89791 9.71865 7.97449 9.3243C8.05108 8.92995 8.24286 8.56716 8.52559 8.28178C8.80832 7.99641 9.1693 7.80125 9.56292 7.721C9.95654 7.64074 10.3651 7.67897 10.737 7.83087C11.1089 7.98278 11.4274 8.24152 11.6523 8.5744C11.8771 8.90728 11.9983 9.29936 12.0004 9.70107C12.0015 10.2397 11.7893 10.7569 11.4102 11.1396C11.0311 11.5223 10.5159 11.7393 9.9772 11.7432ZM24.7983 24.5221H21.3098V19.0484C21.3098 17.7432 21.2846 16.0695 19.4951 16.0695C17.7056 16.0695 17.3898 17.4884 17.3898 18.9537V24.5221H13.914V13.2779H17.2635V14.8105H17.3119C17.7772 13.9263 18.9161 12.9937 20.6151 12.9937C24.1477 12.9937 24.7983 15.3221 24.7983 18.3453V24.5221Z" fill="white"/>
</svg>
