<svg width="28" height="28" viewBox="0 0 28 28" fill="none" xmlns="http://www.w3.org/2000/svg">
<path d="M1.03516 9.03065V9.07182C1.03369 9.32901 0.940828 9.57729 0.773172 9.77233V9.77544C0.43633 10.1734 0.0371094 10.8858 0.0371094 12.0248C0.0371094 13.0572 0.367714 13.7857 0.765686 14.2648C0.940295 14.4773 1.03556 14.7439 1.03516 15.019C1.03515 15.2811 1.08678 15.5407 1.18709 15.7828C1.2874 16.025 1.43443 16.2451 1.61979 16.4304C1.80514 16.6158 2.02519 16.7628 2.26738 16.8631C2.50956 16.9634 2.76913 17.0151 3.03126 17.0151H3.53029C3.66263 17.015 3.78955 16.9625 3.88313 16.8689C3.97671 16.7753 4.0293 16.6484 4.02931 16.516V7.53357C4.02931 7.40122 3.97674 7.2743 3.88315 7.18071C3.78957 7.08712 3.66264 7.03455 3.53029 7.03455H3.03126C2.50186 7.03455 1.99415 7.24485 1.6198 7.61919C1.24546 7.99353 1.03516 8.50125 1.03516 9.03065ZM26.2472 9.68874L26.1892 9.67814C26.1321 9.6672 26.0807 9.63675 26.0437 9.59201C26.0067 9.54727 25.9865 9.49104 25.9864 9.43299V1.91954C25.9864 1.13108 25.4631 0.422462 24.6833 0.152988C23.9398 -0.103386 23.1651 0.105581 22.7072 0.685074C21.7332 1.8482 20.6625 2.92682 19.5066 3.9094C18.0326 5.15697 16.6222 6.04585 15.3272 6.54862C15.2328 6.58461 15.1515 6.64843 15.0942 6.73164C15.0368 6.81485 15.006 6.91352 15.006 7.01459V16.7032C15.0062 16.8983 15.0636 17.089 15.171 17.2519C15.2784 17.4147 15.4312 17.5425 15.6104 17.6195C16.8168 18.1366 18.1205 18.9812 19.4779 20.1321C20.6425 21.1236 21.7209 22.212 22.7016 23.3857C22.8587 23.5828 23.0592 23.741 23.2876 23.8478C23.5159 23.9545 23.7658 24.0071 24.0178 24.0014C24.2393 24.0004 24.4592 23.9638 24.669 23.8929C25.4693 23.6271 25.9864 22.9441 25.9864 22.155V14.6154C25.9865 14.5565 26.0074 14.4995 26.0454 14.4546C26.0834 14.4096 26.1361 14.3795 26.1941 14.3696L26.2472 14.3609C26.8472 14.1981 27.9825 13.5013 27.9825 12.0248C27.9825 10.5483 26.8472 9.85155 26.2472 9.68874ZM13.0118 18.0131V7.53357C13.0118 7.40122 12.9592 7.2743 12.8656 7.18071C12.772 7.08712 12.6451 7.03455 12.5127 7.03455H6.52444C6.39209 7.03455 6.26516 7.08712 6.17157 7.18071C6.07799 7.2743 6.02541 7.40122 6.02541 7.53357V26.4965C6.02541 26.8936 6.18314 27.2744 6.4639 27.5551C6.74465 27.8359 7.12544 27.9936 7.52249 27.9936H10.7942C11.1052 27.9962 11.4127 27.9276 11.6931 27.793C11.9734 27.6583 12.2192 27.4613 12.4117 27.217C12.609 26.9641 12.7416 26.6669 12.7983 26.3512C12.8549 26.0354 12.8338 25.7106 12.7367 25.4049C12.6356 25.0818 12.5102 24.7188 12.3768 24.3326C11.8833 22.9042 11.2327 22.0203 11.0593 20.0086C11.581 19.9972 12.0775 19.7819 12.4424 19.4089C12.8074 19.036 13.0117 18.5349 13.0118 18.0131Z" fill="#DC143C"/>
</svg>
