<svg width="83" height="102" viewBox="0 0 83 102" fill="none" xmlns="http://www.w3.org/2000/svg">
<path d="M82.8491 49.4341C82.811 49.1239 82.6824 48.8317 82.4794 48.5941C82.2764 48.3564 82.008 48.1836 81.7076 48.0974L76.0637 46.4777L77.4821 40.7801C77.6355 40.1605 77.4044 39.5071 76.8944 39.1226C76.3845 38.7381 75.6932 38.6963 75.1393 39.015L75.1274 39.021V6.76547C75.1314 3.03609 72.0953 0 68.3659 0H29.8908C27.8109 0 26.012 0.745078 24.5398 2.2173L2.2173 24.5418C0.74707 26.012 0 27.8129 0 29.8928V95.2305C0.00199219 98.9619 3.03609 102 6.76746 102H68.3659C72.0973 102 75.1314 98.9619 75.1314 95.2286V55.0103L82.0662 51.008C82.3363 50.851 82.5545 50.6182 82.6937 50.3385C82.8328 50.0587 82.8869 49.7443 82.8491 49.4341ZM25.8247 5.43668V25.8247H5.43867L25.8247 5.43668ZM68.3659 98.8145H6.76746C4.7932 98.8145 3.1875 97.2068 3.1875 95.2286V29.8908C3.1875 29.582 3.21539 29.2871 3.26918 29.0043C3.30504 29.0062 3.34289 29.0102 3.38074 29.0102H27.4205C28.301 29.0102 29.0122 28.297 29.0122 27.4185V3.37676C29.0122 3.33891 29.0082 3.30305 29.0062 3.2652C29.2891 3.21141 29.584 3.18352 29.8928 3.18352H68.3659C70.3402 3.18352 71.9459 4.78922 71.9459 6.76348V40.8598L66.4454 44.0353C66.26 44.1424 66.0981 44.2859 65.9694 44.457C65.8407 44.6282 65.7478 44.8235 65.6964 45.0314L64.0747 51.5638L55.7773 56.353C51.8128 50.5259 45.129 46.6909 37.5647 46.6909C25.4263 46.6909 15.553 56.5662 15.553 68.7026C15.553 80.841 25.4283 90.7143 37.5647 90.7143C49.7011 90.7143 59.5764 80.839 59.5764 68.7026C59.5764 65.2641 58.7835 62.0088 57.373 59.1062L65.6665 54.319L71.9439 56.1219V95.2246C71.9459 97.2048 70.3402 98.8145 68.3659 98.8145ZM36.1861 69.4995C36.4809 70.0095 37.0168 70.2963 37.5667 70.2963C37.8376 70.2963 38.1105 70.2266 38.3616 70.0832L41.2383 68.4217C41.2462 68.5153 41.2522 68.6089 41.2522 68.7026C41.2522 70.7366 39.5987 72.3901 37.5647 72.3901C35.5307 72.3901 33.8771 70.7366 33.8771 68.7026C33.8771 66.6685 35.5307 65.015 37.5647 65.015C38.3377 65.015 39.0528 65.2541 39.6465 65.6625L36.7678 67.324C36.0088 67.7643 35.7478 68.7384 36.1861 69.4995ZM37.5667 61.8315C33.7775 61.8315 30.6936 64.9154 30.6936 68.7046C30.6936 72.4937 33.7775 75.5776 37.5667 75.5776C41.3558 75.5776 44.4397 72.4937 44.4397 68.7046C44.4397 68.0232 44.3381 67.3638 44.1529 66.7423L48.0097 64.515C48.5317 65.8099 48.8225 67.2244 48.8225 68.7046C48.8225 74.9142 43.7743 79.9644 37.5687 79.9644C31.363 79.9644 26.3148 74.9122 26.3148 68.7046C26.3148 62.4989 31.363 57.4507 37.5687 57.4507C41.1546 57.4507 44.3521 59.1381 46.416 61.7598L42.5591 63.9871C41.302 62.6603 39.529 61.8315 37.5667 61.8315ZM37.5667 54.2632C29.6039 54.2632 23.1273 60.7418 23.1273 68.7026C23.1273 76.6673 29.6059 83.1479 37.5667 83.1479C45.5275 83.1479 52.0061 76.6673 52.0061 68.7026C52.0074 66.7079 51.5929 64.7348 50.7888 62.9093L54.6078 60.7039C55.7534 63.1324 56.3948 65.8438 56.3948 68.7026C56.3948 79.0839 47.948 87.5307 37.5667 87.5307C27.1854 87.5307 18.7385 79.0839 18.7385 68.7026C18.7385 58.3213 27.1854 49.8744 37.5667 49.8744C43.9536 49.8744 49.6055 53.0719 53.0121 57.9487L49.1951 60.1521C46.5614 56.5841 42.33 54.2632 37.5667 54.2632ZM72.7925 52.6834L72.7387 52.7133L72.3622 52.9304L67.3718 51.4961L68.6229 46.4538L73.4858 43.6468L72.6013 47.1969C72.5014 47.5974 72.5609 48.0209 72.7671 48.3784C72.9733 48.7359 73.3103 48.9994 73.7069 49.1134L77.2232 50.1234L72.7925 52.6834ZM33.1281 12.8695C33.1281 11.991 33.8413 11.2778 34.7198 11.2778H60.4768C61.3574 11.2778 62.0686 11.991 62.0686 12.8695C62.0686 13.7481 61.3554 14.4613 60.4768 14.4613H34.7198C33.8413 14.4633 33.1281 13.7501 33.1281 12.8695ZM33.1281 27.4185C33.1281 26.5399 33.8413 25.8267 34.7198 25.8267H60.4768C61.3574 25.8267 62.0686 26.5399 62.0686 27.4185C62.0686 28.297 61.3554 29.0102 60.4768 29.0102H34.7198C33.8413 29.0102 33.1281 28.297 33.1281 27.4185ZM60.4768 43.4775H14.6565C13.778 43.4775 13.0648 42.7643 13.0648 41.8857C13.0648 41.0072 13.778 40.294 14.6565 40.294H60.4768C61.3554 40.294 62.0686 41.0072 62.0686 41.8857C62.0686 42.7643 61.3554 43.4775 60.4768 43.4775Z" fill="#DC143C"/>
</svg>
