<svg width="102" height="102" viewBox="0 0 102 102" fill="none" xmlns="http://www.w3.org/2000/svg">
<path d="M51.1705 35.5856C52.5744 35.5856 53.7113 34.448 53.7113 33.0447C53.7113 31.6416 52.5744 30.5039 51.1705 30.5039C39.9451 30.5039 30.8447 39.6042 30.8447 50.8304C30.8447 62.056 39.9451 71.1564 51.1705 71.1564C62.3968 71.1564 71.4972 62.056 71.4972 50.8304C71.4972 49.4267 70.3594 48.2898 68.9563 48.2898C67.5532 48.2898 66.4155 49.4267 66.4155 50.8304C66.4155 59.2498 59.5906 66.0755 51.1705 66.0755C42.7513 66.0755 35.9256 59.2498 35.9256 50.8304C35.9256 42.4104 42.7513 35.5856 51.1705 35.5856Z" fill="#DC143C"/>
<path d="M99.6492 35.7389C99.2077 34.4057 97.7697 33.6829 96.4358 34.124C95.1331 34.5551 94.4077 35.9419 94.7962 37.2577C102.394 61.4544 88.9394 87.2289 64.7429 94.8273C40.5471 102.426 14.7724 88.9707 7.17423 64.7742C-0.424971 40.5777 13.0309 14.803 37.2266 7.20456C46.1831 4.39216 55.7864 4.39216 64.7429 7.20456C66.0876 7.60997 67.5062 6.84895 67.9118 5.50423C68.3111 4.17962 67.5787 2.77971 66.2627 2.35179C39.3955 -6.07775 10.7811 8.86923 2.35174 35.7373C-6.0778 62.6045 8.86977 91.2189 35.7372 99.6482C62.6052 108.078 91.2188 93.1308 99.6482 66.2627C102.765 56.3269 102.766 45.6748 99.649 35.7389H99.6492Z" fill="#DC143C"/>
<path d="M56.0095 18.1523C56.0226 16.7056 54.9114 15.4963 53.4686 15.3881C52.7098 15.3236 51.9504 15.259 51.1712 15.259C31.5256 15.259 15.5999 31.1848 15.5999 50.8304C15.5999 70.4754 31.5256 86.4012 51.1712 86.4012C70.8162 86.4012 86.742 70.4754 86.742 50.8306C86.742 49.9114 86.686 48.9932 86.5732 48.0812C86.37 46.6866 85.0751 45.7208 83.6806 45.924C82.2861 46.1262 81.3202 47.4222 81.5226 48.8167C81.5304 48.8695 81.5398 48.9215 81.5505 48.9745C81.6059 49.5901 81.6603 50.2001 81.6603 50.829C81.6611 67.6684 68.0108 81.3187 51.172 81.3203C34.3326 81.3211 20.6821 67.6698 20.6815 50.8312C20.6807 33.9926 34.3302 20.3413 51.1698 20.3407H51.1704C51.801 20.3407 52.4116 20.3951 53.0258 20.4495L53.5019 20.4893C54.8297 20.5461 55.9517 19.5157 56.0079 18.1882C56.0087 18.1756 56.0087 18.164 56.0095 18.1523Z" fill="#DC143C"/>
<path d="M66.4154 22.8813V31.9926L49.3742 49.0336C48.3649 50.0086 48.337 51.6173 49.312 52.6265C50.2872 53.6358 51.8959 53.6639 52.9049 52.6889C52.9261 52.6686 52.947 52.6476 52.9673 52.6265L70.0085 35.5855H79.1194C79.7933 35.5855 80.4392 35.3178 80.9163 34.8408L96.1606 19.5958C97.1527 18.6037 97.1527 16.9952 96.1606 16.0029C95.9247 15.767 95.6447 15.5799 95.3365 15.4523C95.0283 15.3246 94.698 15.259 94.3644 15.259H86.7419V7.63648C86.7419 6.23338 85.6044 5.09564 84.2003 5.09644C83.5269 5.09659 82.8812 5.36417 82.4051 5.84032L67.1601 21.0854C66.924 21.3211 66.7367 21.601 66.6089 21.9092C66.4811 22.2174 66.4153 22.5477 66.4154 22.8813ZM71.4971 23.9336L81.6602 13.7702V17.7998C81.6602 19.2029 82.798 20.3407 84.2011 20.3407H88.2307L78.0673 30.5038H71.4971V23.9336Z" fill="#DC143C"/>
</svg>
