<svg width="102" height="102" viewBox="0 0 102 102" fill="none" xmlns="http://www.w3.org/2000/svg">
<path d="M101.624 49.5487C96.6439 40.5344 89.4273 32.9536 80.6691 27.5355C71.7499 22.0365 61.478 19.1245 51 19.1245C40.522 19.1245 30.2501 22.0365 21.3309 27.5355C12.5726 32.9536 5.35608 40.5344 0.375532 49.5487C0.129239 49.9924 0 50.4915 0 50.999C0 51.5065 0.129239 52.0056 0.375532 52.4493C5.35608 61.4636 12.5726 69.0444 21.3309 74.4625C30.2501 79.9615 40.522 82.8735 51 82.8735C61.478 82.8735 71.7499 79.9615 80.6691 74.4625C89.4273 69.0444 96.6439 61.4636 101.624 52.4493C101.871 52.0056 102 51.5065 102 50.999C102 50.4915 101.871 49.9924 101.624 49.5487ZM51 76.8969C32.9013 76.8969 15.9741 67.0159 6.43565 50.999C15.9741 34.9821 32.9013 25.1011 51 25.1011C69.0987 25.1011 86.0259 34.9821 95.5644 50.999C86.0259 67.0159 69.0987 76.8969 51 76.8969Z" fill="#DC143C"/>
<path d="M51 34.0657C47.6509 34.0657 44.3771 35.0589 41.5924 36.9195C38.8078 38.7802 36.6374 41.4248 35.3557 44.5189C34.0741 47.6131 33.7388 51.0178 34.3921 54.3025C35.0455 57.5872 36.6582 60.6045 39.0264 62.9726C41.3946 65.3408 44.4118 66.9535 47.6965 67.6069C50.9812 68.2603 54.386 67.9249 57.4801 66.6433C60.5743 65.3616 63.2189 63.1913 65.0795 60.4066C66.9402 57.6219 67.9333 54.3481 67.9333 50.999C67.928 46.5096 66.1423 42.2057 62.9678 39.0312C59.7934 35.8567 55.4894 34.071 51 34.0657ZM51 61.9558C48.833 61.9558 46.7146 61.3132 44.9127 60.1093C43.1109 58.9053 41.7065 57.1941 40.8773 55.192C40.048 53.1899 39.831 50.9868 40.2537 48.8614C40.6765 46.736 41.7201 44.7837 43.2524 43.2514C44.7847 41.719 46.737 40.6755 48.8625 40.2527C50.9879 39.8299 53.1909 40.0469 55.193 40.8762C57.1951 41.7055 58.9063 43.1099 60.1103 44.9117C61.3142 46.7136 61.9568 48.8319 61.9568 50.999C61.9537 53.9039 60.7983 56.689 58.7442 58.7431C56.6901 60.7972 53.905 61.9526 51 61.9558ZM51 13.945C51.3924 13.945 51.781 13.8677 52.1436 13.7176C52.5061 13.5674 52.8355 13.3473 53.113 13.0698C53.3905 12.7923 53.6106 12.4629 53.7608 12.1004C53.911 11.7378 53.9882 11.3492 53.9882 10.9568V2.98822C53.9882 2.1957 53.6734 1.43563 53.113 0.87523C52.5526 0.31483 51.7926 0 51 0C50.2075 0 49.4474 0.31483 48.887 0.87523C48.3266 1.43563 48.0118 2.1957 48.0118 2.98822V10.9568C48.0118 11.3492 48.0891 11.7378 48.2393 12.1004C48.3894 12.4629 48.6096 12.7923 48.887 13.0698C49.4474 13.6302 50.2075 13.945 51 13.945ZM28.4051 16.2778C28.7596 16.9869 29.3813 17.5261 30.1333 17.7767C30.8854 18.0274 31.7062 17.9691 32.4153 17.6146C33.1243 17.26 33.6635 16.6384 33.9142 15.8863C34.1649 15.1343 34.1065 14.3134 33.752 13.6044L29.7677 5.63579C29.5922 5.2847 29.3492 4.97163 29.0527 4.71445C28.7561 4.45727 28.4118 4.26101 28.0395 4.13688C27.6671 4.01276 27.2739 3.96319 26.8824 3.99102C26.4908 4.01884 26.1086 4.12351 25.7575 4.29906C25.4064 4.4746 25.0934 4.71757 24.8362 5.01411C24.579 5.31064 24.3827 5.65493 24.2586 6.02731C24.1345 6.39969 24.0849 6.79287 24.1127 7.18441C24.1406 7.57594 24.2452 7.95817 24.4208 8.30925L28.4051 16.2778ZM69.5848 17.6146C69.9358 17.7902 70.3181 17.895 70.7096 17.9229C71.1012 17.9507 71.4944 17.9012 71.8668 17.7771C72.2392 17.6529 72.5835 17.4566 72.8801 17.1994C73.1766 16.9421 73.4195 16.629 73.595 16.2778L77.5793 8.30925C77.7548 7.95817 77.8595 7.57594 77.8873 7.18441C77.9151 6.79287 77.8656 6.39969 77.7414 6.02731C77.6173 5.65493 77.4211 5.31064 77.1639 5.01411C76.9067 4.71757 76.5936 4.4746 76.2425 4.29906C75.8914 4.12351 75.5092 4.01884 75.1177 3.99102C74.7262 3.96319 74.333 4.01276 73.9606 4.13688C73.5882 4.26101 73.2439 4.45727 72.9474 4.71445C72.6509 4.97163 72.4079 5.2847 72.2323 5.63579L68.248 13.6044C68.0724 13.9554 67.9676 14.3377 67.9398 14.7292C67.9119 15.1208 67.9614 15.514 68.0856 15.8864C68.2097 16.2588 68.406 16.6031 68.6632 16.8997C68.9205 17.1962 69.2336 17.4391 69.5848 17.6146ZM51 88.0529C50.2075 88.0529 49.4474 88.3678 48.887 88.9282C48.3266 89.4886 48.0118 90.2486 48.0118 91.0412V99.0098C48.0118 99.8023 48.3266 100.562 48.887 101.123C49.4474 101.683 50.2075 101.998 51 101.998C51.7926 101.998 52.5526 101.683 53.113 101.123C53.6734 100.562 53.9882 99.8023 53.9882 99.0098V91.0412C53.9882 90.2486 53.6734 89.4886 53.113 88.9282C52.5526 88.3678 51.7926 88.0529 51 88.0529ZM32.4153 84.3834C32.0642 84.2078 31.682 84.103 31.2904 84.0751C30.8989 84.0472 30.5056 84.0968 30.1332 84.2209C29.7608 84.3451 29.4165 84.5414 29.12 84.7986C28.8235 85.0558 28.5805 85.369 28.4051 85.7201L24.4208 93.6887C24.0663 94.3978 24.0079 95.2186 24.2586 95.9707C24.5093 96.7227 25.0485 97.3444 25.7575 97.6989C26.4666 98.0535 27.2874 98.1118 28.0395 97.8611C28.7915 97.6104 29.4132 97.0712 29.7677 96.3622L33.752 88.3936C33.9277 88.0425 34.0324 87.6603 34.0603 87.2687C34.0882 86.8772 34.0386 86.484 33.9145 86.1116C33.7904 85.7392 33.5941 85.3949 33.3368 85.0983C33.0796 84.8018 32.7664 84.5589 32.4153 84.3834ZM73.595 85.7201C73.4194 85.3691 73.1765 85.056 72.8799 84.7988C72.5834 84.5416 72.2391 84.3454 71.8667 84.2212C71.4943 84.0971 71.1012 84.0475 70.7096 84.0754C70.3181 84.1032 69.9359 84.2079 69.5848 84.3834C69.2337 84.559 68.9206 84.8019 68.6634 85.0985C68.4063 85.395 68.21 85.7393 68.0859 86.1117C67.9617 86.484 67.9122 86.8772 67.94 87.2688C67.9678 87.6603 68.0725 88.0425 68.248 88.3936L72.2323 96.3622C72.5869 97.0712 73.2085 97.6104 73.9606 97.8611C74.7126 98.1118 75.5335 98.0535 76.2425 97.6989C76.9516 97.3444 77.4908 96.7227 77.7414 95.9707C77.9921 95.2186 77.9338 94.3978 77.5793 93.6887L73.595 85.7201Z" fill="#DC143C"/>
</svg>
