<svg clip-rule="evenodd" fill-rule="evenodd" height="512" stroke-linejoin="round" stroke-miterlimit="2" viewBox="0 0 32 32" width="512" xmlns="http://www.w3.org/2000/svg"><circle cx="16" cy="16.041" fill="#ffa49c" r="10.5"/><circle cx="16" cy="16.041" fill="#ff5344" r="9.5"/><path d="m19.158 15.147c.338.169.552.516.552.894 0 .379-.214.725-.552.895-1.423.711-3.386 1.693-4.711 2.355-.31.155-.678.139-.973-.044-.295-.182-.474-.504-.474-.85 0-1.374 0-3.337 0-4.711 0-.346.179-.668.474-.85.295-.183.663-.199.973-.044 1.325.662 3.288 1.644 4.711 2.355z" fill="#fff"/></svg>