<svg width="102" height="102" viewBox="0 0 102 102" fill="none" xmlns="http://www.w3.org/2000/svg">
<path d="M38.4184 73.1208C46.4432 67.3948 48.3063 56.2469 42.5802 48.2231C36.8534 40.1981 25.7064 38.3344 17.6816 44.0612C9.6576 49.7871 7.7937 60.9351 13.5199 68.9591C14.6674 70.5669 16.0738 71.9733 17.6816 73.1208C7.09503 76.9598 0.0326721 87.0017 0 98.263V99.4506C0 100.859 1.14153 102.001 2.55002 102.001H53.5498C54.9583 102.001 56.0998 100.859 56.0998 99.4508V98.263C56.068 87.0017 49.005 76.9598 38.4184 73.1208ZM15.3001 58.6501C15.3001 51.609 21.0082 45.9 28.0502 45.9C35.0915 45.9 40.7995 51.609 40.7995 58.6501C40.7995 65.6921 35.0915 71.4002 28.0502 71.4002C21.0114 71.3916 15.3079 65.6889 15.3001 58.6501ZM5.14208 96.9004C5.87481 85.4392 15.3776 76.5137 26.8623 76.5006H29.2382C40.7228 76.5137 50.2254 85.439 50.9578 96.9004H5.14208ZM99.4508 0H48.4504C47.0417 0 45.9 1.14153 45.9 2.55002V33.1499C45.9 34.5583 47.0415 35.7001 48.4502 35.7001H61.2003V48.4502C61.2003 49.8581 62.3418 50.9996 63.7505 50.9996C64.3918 50.9996 65.0096 50.7585 65.4805 50.3227L81.3207 35.7001H99.4498C100.858 35.7001 102 34.5585 102 33.1501V2.55002C102.001 1.14153 100.859 0 99.4508 0ZM96.9004 30.5998H80.3256C79.6842 30.6007 79.0665 30.8426 78.595 31.2776L66.3005 42.6252V33.1499C66.3005 31.7414 65.159 30.5998 63.7503 30.5998H51.0002V5.10044H96.9002L96.9004 30.5998Z" fill="#DC143C"/>
</svg>
