<svg width="34" height="34" viewBox="0 0 34 34" fill="none" xmlns="http://www.w3.org/2000/svg">
<path id="Subtract" fill-rule="evenodd" clip-rule="evenodd" d="M23.6568 2.92896C19.7516 -0.976318 13.4199 -0.976318 9.51472 2.92896L2.92891 9.51477C-0.976303 13.42 -0.976303 19.7516 2.92891 23.6569L9.51472 30.2427C13.4199 34.1479 19.7516 34.1479 23.6568 30.2427L30.2426 23.6569C34.1478 19.7516 34.1478 13.42 30.2426 9.51477L23.6568 2.92896ZM9.04292 18.27L14.1366 22.8544C15.0084 23.639 16.3653 23.5084 17.0715 22.5718L26.3137 10.3137L16.4341 17.8014C16.0441 18.0969 15.4976 18.0669 15.1423 17.7303L12.3803 15.1138C11.4332 14.2164 9.94972 14.2164 9.00258 15.1138C8.09236 15.976 8.11098 17.4313 9.04292 18.27Z" fill="#DC143C"/>
</svg>
