<svg id="Layer_1" viewBox="0 0 512 512" xmlns="http://www.w3.org/2000/svg" data-name="Layer 1"><path d="m330.9 447.373a100.962 100.962 0 0 0 19.031 30.864 244.48 244.48 0 0 1 -104.423 23.286c-135.608 0-245.508-109.931-245.508-245.538 0-135.577 109.9-245.508 245.508-245.508 135.578 0 245.509 109.931 245.509 245.508a245.084 245.084 0 0 1 -10.172 70.091 100.891 100.891 0 0 0 -33.34-14.222 210.216 210.216 0 0 0 7.519-55.869c0-115.7-93.785-209.515-209.516-209.515s-209.544 93.814-209.544 209.515c0 115.731 93.814 209.545 209.544 209.545a208.8 208.8 0 0 0 85.392-18.157zm44.765-292.109a7.176 7.176 0 0 0 -7.2-7.2h-245.944a7.2 7.2 0 0 0 0 14.4h101.363a58.56 58.56 0 0 1 57.938 51.176h-159.3a7.2 7.2 0 0 0 0 14.4h159.3a58.562 58.562 0 0 1 -57.938 51.177h-101.363a7.214 7.214 0 0 0 -5.013 12.357l139.046 139.042a7.2 7.2 0 0 0 10.2-10.172l-126.834-126.834h83.964a72.983 72.983 0 0 0 72.422-65.574h72.16a7.2 7.2 0 1 0 0-14.4h-72.16a72.557 72.557 0 0 0 -21.013-44.211 73.5 73.5 0 0 0 -8.073-6.965h101.246a7.2 7.2 0 0 0 7.199-7.196zm136.335 255.33a86.805 86.805 0 1 1 -86.79-86.82 86.966 86.966 0 0 1 86.79 86.82zm-34.565-39.344a7.211 7.211 0 0 0 -10.171 0l-63.417 63.417-20.721-20.722a7.2 7.2 0 1 0 -10.171 10.2l25.792 25.792a7.211 7.211 0 0 0 10.171 0l68.517-68.517a7.211 7.211 0 0 0 0-10.17z" fill="#fdbf00" fill-rule="evenodd"/></svg>