<svg width="107" height="88" viewBox="0 0 107 88" fill="none" xmlns="http://www.w3.org/2000/svg">
<path d="M84.4158 24.1183V30.4313C84.4158 38.5535 73.1205 48.509 66.662 48.509C60.2033 48.509 48.9082 38.5535 48.9082 30.4313V24.1183M84.4158 24.1183C72.939 23.9543 65.3678 22.3674 59.1904 18.157C55.9113 21.6646 53.1709 22.795 48.9082 24.1183M84.4158 24.1183C87.6716 22.4494 93.2227 19.7555 92.2563 2.00004C75.094 9.30827 59.4481 -3.55749 54.2659 8.14293C48.9082 11.0652 48.9082 17.2491 48.9082 24.1183" stroke="#DC143C" stroke-width="4" stroke-miterlimit="10" stroke-linecap="round" stroke-linejoin="round"/>
<path d="M27.6644 42.1902C19.7067 44.8196 10.6423 42.0965 5.56564 34.8875C-0.646993 26.0684 1.46677 13.8819 10.2853 7.66864C19.1036 1.45518 31.2888 3.56935 37.5017 12.3885C42.5783 19.5916 42.0981 29.0492 36.9394 35.6546L38.6845 47.9758L27.6644 42.1902Z" stroke="#DC143C" stroke-width="4" stroke-miterlimit="10" stroke-linecap="round" stroke-linejoin="round"/>
<path d="M22.0374 26.5367V23.9131C22.0374 21.4536 25.3924 19.7847 25.3924 17.5594V16.7277C25.3924 14.3737 23.4602 12.4413 21.1062 12.4413C18.7524 12.4413 16.8202 14.3737 16.8202 16.7277V17.5594M22.043 34.5654V34.5596" stroke="#DC143C" stroke-width="4" stroke-miterlimit="10" stroke-linecap="round" stroke-linejoin="round"/>
<path d="M47.608 85.4607H34.7905C29.5088 85.4607 28.1444 83.7098 29.3448 78.3046C31.7395 67.4825 36.8807 55.7646 55.431 53.059V42.5824M77.9278 42.5472V53.059C96.478 55.7646 101.619 67.4825 104.014 78.3046C105.215 83.7098 103.85 85.4607 98.5685 85.4607H67.7509" stroke="#DC143C" stroke-width="4" stroke-miterlimit="10" stroke-linecap="round" stroke-linejoin="round"/>
<path d="M55.431 53.059L66.6793 60.2444L77.9278 53.059" stroke="#DC143C" stroke-width="4" stroke-miterlimit="10" stroke-linecap="round" stroke-linejoin="round"/>
<path d="M47.3153 55.0793L57.3341 70.4517L66.6795 60.2444L76.0251 70.4517L86.0437 55.0793" stroke="#DC143C" stroke-width="4" stroke-miterlimit="10" stroke-linecap="round" stroke-linejoin="round"/>
<path d="M57.6915 85.4607H57.6794" stroke="#DC143C" stroke-width="4" stroke-miterlimit="10" stroke-linecap="round" stroke-linejoin="round"/>
</svg>
