<svg width="33" height="33" viewBox="0 0 33 33" fill="none" xmlns="http://www.w3.org/2000/svg">
<g id="youtube round">
<path id="Union" fill-rule="evenodd" clip-rule="evenodd" d="M7.19473 2.72828C9.85694 0.949448 12.9868 0 16.1887 0C20.4822 0 24.5998 1.70559 27.6358 4.74155C30.6717 7.77751 32.3773 11.8952 32.3773 16.1887C32.3773 19.3905 31.4279 22.5204 29.649 25.1826C27.8702 27.8448 25.3419 29.9197 22.3838 31.145C19.4257 32.3703 16.1707 32.6909 13.0304 32.0662C9.89012 31.4416 7.00558 29.8998 4.74155 27.6358C2.47753 25.3717 0.935711 22.4872 0.311068 19.3469C-0.313575 16.2066 0.00701426 12.9516 1.2323 9.99352C2.45758 7.03543 4.53252 4.50711 7.19473 2.72828ZM24.4643 20.2876C24.6261 19.8963 24.7093 19.477 24.709 19.0536V13.3237C24.7093 12.9003 24.6261 12.481 24.4643 12.0897C24.3025 11.6985 24.0651 11.3429 23.7658 11.0434C23.4665 10.7439 23.1111 10.5064 22.72 10.3443C22.3288 10.1822 21.9096 10.0987 21.4862 10.0987H10.8911C10.4677 10.0987 10.0485 10.1822 9.65733 10.3443C9.26618 10.5064 8.9108 10.7439 8.61151 11.0434C8.31221 11.3429 8.07486 11.6985 7.91303 12.0897C7.75119 12.481 7.66804 12.9003 7.66832 13.3237V19.0536C7.66804 19.477 7.75119 19.8963 7.91303 20.2876C8.07486 20.6789 8.31221 21.0344 8.61151 21.3339C8.9108 21.6334 9.26618 21.8709 9.65733 22.033C10.0485 22.1951 10.4677 22.2786 10.8911 22.2786H21.4862C21.9096 22.2786 22.3288 22.1951 22.72 22.033C23.1111 21.8709 23.4665 21.6334 23.7658 21.3339C24.0651 21.0344 24.3025 20.6789 24.4643 20.2876ZM18.4338 16.195L13.9436 18.8001V13.5771L18.4338 16.195Z" fill="white"/>
</g>
</svg>
